{
  "source": "C:\\Users\\Peter\\Desktop\\stuff\\MIUN\\quantitative_research\\video_compression\\videos\\BVI-HD\\BVI-HD_CDVL_videos\\ORIG\\FishAndRock_1920x1080_30fps.mp4",
  "output": "C:\\Users\\Peter\\Desktop\\stuff\\MIUN\\quantitative_research\\video_compression\\compressed_videos\\BVI-HD\\av1\\1.5\\FishAndRock_1920x1080_30fps_av1.mkv",
  "codec": "av1",
  "ok": "Input #0, mov,mp4,m4a,3gp,3g2,mj2, from 'C:\\Users\\Peter\\Desktop\\stuff\\MIUN\\quantitative_research\\video_compression\\videos\\BVI-HD\\BVI-HD_CDVL_videos\\ORIG\\FishAndRock_1920x1080_30fps.mp4':\n  Metadata:\n    major_brand     : isom\n    minor_version   : 512\n    compatible_brands: isomiso2avc1mp41\n    encoder         : Lavf54.28.101\n  Duration: 00:00:05.00, start: 0.000000, bitrate: 251564 kb/s\n  Stream #0:0[0x1](und): Video: h264 (High 4:4:4 Predictive) (avc1 / 0x31637661), yuv420p(progressive), 1920x1080, 251561 kb/s, 30 fps, 30 tbr, 30 tbn (default)\n    Metadata:\n      handler_name    : VideoHandler\n      vendor_id       : [0][0][0][0]\n[out#0/matroska @ 00000275cb818fc0] Codec AVOption b:a (set bitrate (in bits/s)) has not been used for any stream. The most likely reason is either wrong type (e.g. a video option with no video streams) or that it is a private option of some decoder which was not actually used for any stream.\nStream mapping:\n  Stream #0:0 -> #0:0 (h264 (native) -> av1 (libsvtav1))\nPress [q] to stop, [?] for help\nSvt[info]: -------------------------------------------\nSvt[info]: SVT [version]:\tSVT-AV1 Encoder Lib v3.1.0-19-g6ecfe8ec\nSvt[info]: SVT [build]  :\tGCC 15.2.0\t 64 bit\nSvt[info]: LIB Build date: Aug 17 2025 11:37:13\nSvt[info]: -------------------------------------------\nSvt[info]: Level of Parallelism: 5\nSvt[info]: Number of PPCS 93\nSvt[info]: [asm level on system : up to avx2]\nSvt[info]: [asm level selected : up to avx2]\nSvt[info]: -------------------------------------------\nSvt[info]: SVT [config]: main profile\ttier (auto)\tlevel (auto)\nSvt[info]: SVT [config]: width / height / fps numerator / fps denominator \t\t: 1920 / 1080 / 30 / 1\nSvt[info]: SVT [config]: bit-depth / color format \t\t\t\t\t: 8 / YUV420\nSvt[info]: SVT [config]: preset / tune / pred struct \t\t\t\t\t: 4 / PSNR / random access\nSvt[info]: SVT [config]: gop size / mini-gop size / key-frame type \t\t\t: 161 / 16 / key frame\nSvt[info]: SVT [config]: BRC mode / target bitrate (kbps)\t\t\t\t: VBR / 1500 \nSvt[info]: SVT [config]: AQ mode / Variance Boost \t\t\t\t\t: 2 / 0\nSvt[info]: SVT [config]: sharpness / luminance-based QP bias \t\t\t\t: 0 / 0\nSvt[info]: SVT [config]: QP scale compress strength \t\t\t\t\t: 0\nSvt[info]: -------------------------------------------\nOutput #0, matroska, to 'C:\\Users\\Peter\\Desktop\\stuff\\MIUN\\quantitative_research\\video_compression\\compressed_videos\\BVI-HD\\av1\\1.5\\FishAndRock_1920x1080_30fps_av1.mkv':\n  Metadata:\n    major_brand     : isom\n    minor_version   : 512\n    compatible_brands: isomiso2avc1mp41\n    encoder         : Lavf62.3.100\n  Stream #0:0(und): Video: av1 (AV01 / 0x31305641), yuv420p(tv, progressive), 1920x1080, q=2-31, 1500 kb/s, 30 fps, 1k tbn (default)\n    Metadata:\n      encoder         : Lavc62.11.100 libsvtav1\n      handler_name    : VideoHandler\n      vendor_id       : [0][0][0][0]\n    Side data:\n      cpb: bitrate max/min/avg: 0/0/1500000 buffer size: 1500000 vbv_delay: N/A\nframe=    0 fps=0.0 q=0.0 size=       0KiB time=N/A bitrate=N/A speed=N/A elapsed=0:00:01.04    \nframe=    0 fps=0.0 q=0.0 size=       0KiB time=N/A bitrate=N/A speed=N/A elapsed=0:00:01.57    \nframe=    0 fps=0.0 q=0.0 size=       0KiB time=N/A bitrate=N/A speed=N/A elapsed=0:00:02.18    \nframe=    0 fps=0.0 q=0.0 size=       0KiB time=N/A bitrate=N/A speed=N/A elapsed=0:00:02.73    \nframe=    0 fps=0.0 q=0.0 size=       0KiB time=N/A bitrate=N/A speed=N/A elapsed=0:00:03.30    \nframe=    0 fps=0.0 q=0.0 size=       0KiB time=N/A bitrate=N/A speed=N/A elapsed=0:00:03.82    \nframe=    0 fps=0.0 q=0.0 size=       0KiB time=N/A bitrate=N/A speed=N/A elapsed=0:00:04.33    \nframe=    1 fps=0.2 q=24.0 size=       1KiB time=00:00:00.00 bitrate=N/A speed=   0x elapsed=0:00:04.85    \nframe=    1 fps=0.2 q=24.0 size=       1KiB time=00:00:00.00 bitrate=N/A speed=   0x elapsed=0:00:05.36    \nframe=    1 fps=0.2 q=24.0 size=       1KiB time=00:00:00.00 bitrate=N/A speed=   0x elapsed=0:00:05.88    \nframe=    1 fps=0.2 q=24.0 size=       1KiB time=00:00:00.00 bitrate=N/A speed=   0x elapsed=0:00:06.40    \nframe=    4 fps=0.6 q=43.0 size=       1KiB time=00:00:00.10 bitrate=  57.0kbits/s speed=0.0144x elapsed=0:00:06.94    \nframe=    7 fps=0.9 q=42.0 size=       1KiB time=00:00:00.20 bitrate=  28.5kbits/s speed=0.0267x elapsed=0:00:07.48    \nframe=    9 fps=1.1 q=37.0 size=       1KiB time=00:00:00.26 bitrate=  21.4kbits/s speed=0.0331x elapsed=0:00:08.04    \nframe=   14 fps=1.6 q=41.0 size=       1KiB time=00:00:00.43 bitrate=  13.2kbits/s speed=0.0505x elapsed=0:00:08.58    \nframe=   18 fps=2.0 q=42.0 size=       1KiB time=00:00:00.53 bitrate=  10.7kbits/s speed=0.0582x elapsed=0:00:09.16    \nframe=   22 fps=2.3 q=42.0 size=       1KiB time=00:00:00.70 bitrate=   8.1kbits/s speed=0.0717x elapsed=0:00:09.76    \nframe=   25 fps=2.4 q=36.0 size=       1KiB time=00:00:00.76 bitrate=   7.4kbits/s speed=0.0743x elapsed=0:00:10.31    \nframe=   29 fps=2.7 q=37.0 size=       1KiB time=00:00:00.93 bitrate=   6.1kbits/s speed=0.0856x elapsed=0:00:10.90    \nframe=   35 fps=3.0 q=42.0 size=       1KiB time=00:00:01.10 bitrate=   5.2kbits/s speed=0.0957x elapsed=0:00:11.49    \nframe=   39 fps=3.2 q=42.0 size=       1KiB time=00:00:01.23 bitrate=   4.6kbits/s speed=0.102x elapsed=0:00:12.05    \nframe=   42 fps=3.3 q=43.0 size=       1KiB time=00:00:01.36 bitrate=   4.2kbits/s speed=0.108x elapsed=0:00:12.61    \nframe=   48 fps=3.6 q=42.0 size=       1KiB time=00:00:01.53 bitrate=   3.7kbits/s speed=0.116x elapsed=0:00:13.16    \nframe=   55 fps=4.0 q=42.0 size=       1KiB time=00:00:01.70 bitrate=   3.4kbits/s speed=0.124x elapsed=0:00:13.73    \nframe=   57 fps=4.0 q=36.0 size=       1KiB time=00:00:01.86 bitrate=   3.1kbits/s speed=0.131x elapsed=0:00:14.30    \nframe=   63 fps=4.2 q=41.0 size=       1KiB time=00:00:02.00 bitrate=   2.9kbits/s speed=0.134x elapsed=0:00:14.87    \nframe=   69 fps=4.5 q=41.0 size=       1KiB time=00:00:02.20 bitrate=   2.6kbits/s speed=0.142x elapsed=0:00:15.47    \nframe=   73 fps=4.5 q=37.0 size=       1KiB time=00:00:02.40 bitrate=   2.4kbits/s speed=0.149x elapsed=0:00:16.06    \nframe=   79 fps=4.8 q=43.0 size=       1KiB time=00:00:02.53 bitrate=   2.3kbits/s speed=0.152x elapsed=0:00:16.62    \nframe=   85 fps=4.9 q=40.0 size=       1KiB time=00:00:02.80 bitrate=   2.0kbits/s speed=0.163x elapsed=0:00:17.17    \nframe=   89 fps=5.0 q=36.0 size=       1KiB time=00:00:02.93 bitrate=   1.9kbits/s speed=0.166x elapsed=0:00:17.69    \nframe=   93 fps=5.1 q=40.0 size=       1KiB time=00:00:03.06 bitrate=   1.9kbits/s speed=0.168x elapsed=0:00:18.24    \nframe=   97 fps=5.1 q=27.0 size=       1KiB time=00:00:03.20 bitrate=   1.8kbits/s speed=0.17x elapsed=0:00:18.84    \nframe=  103 fps=5.3 q=43.0 size=       1KiB time=00:00:03.40 bitrate=   1.7kbits/s speed=0.175x elapsed=0:00:19.39    \nframe=  105 fps=5.3 q=36.0 size=       1KiB time=00:00:03.46 bitrate=   1.6kbits/s speed=0.173x elapsed=0:00:19.98    \nframe=  109 fps=5.3 q=38.0 size=       1KiB time=00:00:03.53 bitrate=   1.6kbits/s speed=0.172x elapsed=0:00:20.57    \nframe=  111 fps=5.2 q=41.0 size=       1KiB time=00:00:03.66 bitrate=   1.6kbits/s speed=0.173x elapsed=0:00:21.20    \nframe=  117 fps=5.4 q=41.0 size=       1KiB time=00:00:03.80 bitrate=   1.5kbits/s speed=0.175x elapsed=0:00:21.75    \nframe=  121 fps=5.4 q=37.0 size=       1KiB time=00:00:04.00 bitrate=   1.4kbits/s speed=0.179x elapsed=0:00:22.29    \nframe=  121 fps=5.3 q=37.0 size=       1KiB time=00:00:04.00 bitrate=   1.4kbits/s speed=0.175x elapsed=0:00:22.84    \nframe=  129 fps=5.5 q=28.0 size=       1KiB time=00:00:04.26 bitrate=   1.3kbits/s speed=0.183x elapsed=0:00:23.34    \nframe=  135 fps=5.7 q=45.0 size=       1KiB time=00:00:04.40 bitrate=   1.3kbits/s speed=0.184x elapsed=0:00:23.86    \nframe=  139 fps=5.7 q=45.0 size=       1KiB time=00:00:04.60 bitrate=   1.2kbits/s speed=0.189x elapsed=0:00:24.39    \n[out#0/matroska @ 00000275cb818fc0] video:873KiB audio:0KiB subtitle:0KiB other streams:0KiB global headers:0KiB muxing overhead: 0.161487%\nframe=  150 fps=6.1 q=45.0 Lsize=     874KiB time=00:00:04.96 bitrate=1441.6kbits/s speed=0.202x elapsed=0:00:24.62    \n",
  "seconds": 25.133944988250732,
  "probe_out": {}
}